<?xml version="1.0" standalone="no"?>
<!DOCTYPE svg PUBLIC "-//W3C//DTD SVG 20010904//EN" "http://www.w3.org/TR/2001/REC-SVG-20010904/DTD/svg10.dtd">
<svg xmlns="http://www.w3.org/2000/svg" version="1.0" width="2187.000000pt" height="2160.000000pt" viewBox="0 0 2187.000000 2160.000000" preserveAspectRatio="xMidYMid meet">
<metadata>
Created by potrace 1.16, written by Peter Selinger 2001-2019
<meta name="Producer" content="Online-Convert"/></metadata>
<g transform="translate(0.000000,2160.000000) scale(0.100000,-0.100000)" fill="#000000" stroke="none">
<path d="M10515 21354 c-38 -2 -149 -8 -245 -14 -2791 -168 -5361 -1419 -7241 -3526 -853 -956 -1541 -2093 -1989 -3289 -366 -975 -572 -1944 -652 -3065 -16 -230 -16 -1080 0 -1310 96 -1344 378 -2498 897 -3660 1039 -2329 2950 -4249 5280 -5305 1362 -617 2842 -935 4360 -935 2967 0 5736 1212 7758 3395 1489 1607 2436 3634 2711 5800 63 498 80 790 80 1360 0 570 -17 862 -80 1360 -319 2519 -1541 4827 -3459 6534 -574 511 -1215 968 -1880 1338 -1035 577 -2173 976 -3340 1173 -363 61 -686 99 -1110 130 -138 11 -954 21 -1090 14z m1160 -1048 c974 -84 1869 -291 2735 -633 1644 -649 3088 -1755 4151 -3179 992 -1327 1613 -2867 1818 -4504 57 -452 66 -615 66 -1185 0 -570 -9 -733 -66 -1185 -246 -1966 -1092 -3787 -2445 -5260 -1603 -1745 -3800 -2833 -6149 -3045 -542 -48 -1178 -48 -1720 0 -2569 231 -4942 1508 -6571 3535 -1131 1408 -1836 3099 -2038 4890 -45 391 -50 513 -50 1065 0 552 5 674 50 1065 189 1679 818 3266 1833 4624 1220 1635 2944 2848 4874 3430 756 228 1401 341 2287 400 157 10 1047 -3 1225 -18z"/>
<path d="M15330 15814 c-103 -13 -257 -48 -345 -78 -151 -51 -10267 -4021 -10364 -4067 -236 -112 -426 -297 -504 -492 -83 -208 -50 -477 84 -674 108 -159 293 -309 484 -394 28 -12 583 -202 1235 -421 651 -220 1186 -400 1187 -402 2 -2 125 -401 274 -887 599 -1958 637 -2079 708 -2233 82 -177 200 -316 316 -370 74 -36 237 -66 350 -66 178 1 313 48 418 149 122 116 1370 1251 1376 1251 3 -1 528 -401 1166 -891 l1160 -889 100 -39 c173 -67 267 -85 450 -85 133 0 175 3 249 22 99 25 226 81 313 138 142 94 316 298 388 457 21 45 218 1023 931 4615 l905 4557 -5 110 c-5 131 -23 203 -76 310 -120 243 -336 370 -645 380 -66 2 -136 1 -155 -1z m57 -826 c-3 -13 -398 -2003 -877 -4423 -802 -4048 -874 -4403 -899 -4439 -15 -22 -47 -53 -70 -70 -39 -28 -49 -31 -119 -30 -46 0 -91 7 -113 16 -53 23 -3391 2587 -3767 2893 -2 2 486 443 1085 981 2649 2382 3305 2974 3409 3078 166 168 225 282 225 440 1 269 -151 470 -389 517 -136 26 -325 -13 -488 -100 -39 -21 -1404 -885 -3033 -1920 -1629 -1034 -2969 -1881 -2976 -1881 -22 0 -2336 780 -2380 803 -22 11 -50 28 -63 38 l-23 18 23 15 c13 8 43 24 68 35 25 12 2293 903 5040 1980 2747 1077 5031 1973 5074 1991 88 35 231 79 260 79 14 1 17 -4 13 -21z m-5811 -7109 c173 -133 314 -244 314 -249 0 -9 -771 -712 -776 -707 -4 4 122 1133 131 1175 3 12 8 22 11 22 3 0 147 -108 320 -241z"/>
</g>
</svg>
