<?xml version="1.0" standalone="no"?>
<!DOCTYPE svg PUBLIC "-//W3C//DTD SVG 20010904//EN" "http://www.w3.org/TR/2001/REC-SVG-20010904/DTD/svg10.dtd">
<svg xmlns="http://www.w3.org/2000/svg" version="1.0" width="735.000000pt" height="409.000000pt" viewBox="0 0 735.000000 409.000000" preserveAspectRatio="xMidYMid meet">
<metadata>
Created by potrace 1.16, written by Peter Selinger 2001-2019
<meta name="Producer" content="Online-Convert"/></metadata>
<g transform="translate(0.000000,409.000000) scale(0.100000,-0.100000)" fill="#000000" stroke="none">
<path d="M3415 3984 c-428 -64 -774 -232 -1063 -517 -282 -277 -454 -608 -523 -1007 -19 -111 -21 -150 -16 -340 4 -179 9 -233 30 -325 51 -227 140 -440 261 -625 l64 -98 -122 -491 c-68 -270 -120 -491 -116 -491 4 0 75 26 156 58 195 77 555 218 719 281 l130 51 80 -30 c454 -166 971 -139 1409 74 375 182 670 477 852 852 213 439 240 955 73 1412 -216 595 -724 1035 -1348 1169 -100 21 -147 25 -336 28 -121 2 -233 1 -250 -1z m501 -94 c389 -68 701 -233 976 -519 128 -133 219 -261 297 -416 191 -380 237 -800 135 -1214 -123 -496 -465 -916 -929 -1141 -417 -202 -878 -233 -1309 -89 -67 23 -127 44 -135 49 -8 4 -47 -6 -95 -25 -76 -30 -329 -129 -461 -180 -33 -13 -125 -49 -204 -80 -79 -30 -145 -54 -147 -52 -2 2 43 192 101 423 58 230 105 429 105 441 0 12 -4 24 -10 28 -19 12 -120 175 -173 281 -63 125 -118 282 -149 428 -33 156 -37 459 -9 626 131 771 737 1353 1516 1453 17 2 107 5 201 6 133 1 198 -4 290 -19z"/>
<path d="M3490 3654 c-14 -2 -59 -9 -100 -15 -227 -33 -465 -134 -655 -277 -360 -273 -569 -664 -600 -1127 -23 -341 105 -734 332 -1014 25 -31 42 -60 39 -70 -3 -9 -18 -63 -34 -121 -16 -58 -49 -172 -72 -253 -23 -82 -40 -151 -37 -154 3 -2 52 13 109 36 57 22 184 72 282 111 108 42 183 67 190 62 27 -22 217 -95 299 -116 139 -36 239 -49 382 -50 624 -3 1180 378 1406 962 121 316 130 675 23 1000 -203 622 -787 1039 -1439 1031 -55 -1 -111 -3 -125 -5z m-243 -690 c38 -5 43 -9 54 -42 20 -63 89 -243 120 -314 46 -105 43 -118 -56 -226 l-86 -93 22 -38 c57 -102 183 -249 316 -366 95 -85 220 -175 243 -175 7 0 50 36 97 80 46 44 96 83 110 86 17 5 44 -1 77 -16 28 -12 128 -50 221 -85 l170 -63 7 -44 c3 -23 7 -71 7 -105 1 -60 -1 -64 -48 -121 -57 -69 -99 -105 -155 -135 -36 -19 -55 -22 -161 -21 -154 1 -260 29 -439 118 -517 256 -885 760 -889 1216 -1 80 2 102 21 141 30 60 82 121 151 175 60 47 60 47 218 28z"/>
</g>
</svg>
